<svg width="98" height="89" viewBox="0 0 98 89" fill="none" xmlns="http://www.w3.org/2000/svg">
<path d="M97.776 56.4751C97.6202 57.8494 97.5424 59.2236 97.127 60.572C95.8033 64.9023 93.3893 68.4287 89.5736 70.9439C87.2375 72.4738 84.5899 73.1739 81.8126 73.4332C80.5926 73.5369 80.5407 73.5369 80.2811 74.7297C79.5284 78.1005 78.2565 81.238 75.8166 83.7532C74.5966 85.0238 73.1171 85.9832 71.6894 87.0204C69.7167 88.4465 67.4585 89.1725 65.0445 88.9651C61.8778 88.6799 59.1004 87.3834 56.7643 85.2312C53.6755 82.353 52.0921 78.671 51.3393 74.6C50.8202 71.6959 50.6385 68.7399 50.6385 65.7839C50.6385 65.2653 50.7943 64.98 51.2615 64.7467C52.3257 64.2022 53.338 63.5539 54.4022 62.9835C54.9733 62.6723 55.0252 62.7501 55.0512 63.3724C55.0771 64.1762 54.9992 65.006 55.1031 65.8098C55.155 66.1728 55.2588 66.3284 55.6482 66.3284C57.4911 66.3025 59.334 66.3025 61.177 66.3284C61.4625 66.3284 61.6442 66.2247 61.8259 66.0172C62.2412 65.4468 62.7344 64.9282 63.3054 64.5133C65.5117 62.9057 68.6265 64.2799 68.938 66.9766C69.2235 69.5178 67.8997 71.3588 65.5377 71.6181C64.2398 71.7477 63.0978 71.2032 62.371 70.2179C61.5923 69.1807 60.6578 68.9732 59.4898 69.051C58.2179 69.1288 56.92 68.9732 55.6222 69.051C55.2588 69.077 55.1031 69.1807 55.0771 69.5696C54.9733 75.0149 56.4788 79.76 61.2029 82.9494C63.7207 84.6608 66.4202 84.9201 69.2755 83.5199C72.52 81.9122 74.2332 79.2414 75.2196 75.9224C75.8166 73.8999 75.9204 71.8255 75.9463 69.7511C75.9723 65.8617 76.0761 61.9463 75.8425 58.0568C75.7646 56.89 75.7906 56.89 74.6485 56.8381C73.169 56.7862 71.6894 56.7862 70.2099 56.7085C68.938 56.6566 68.0036 57.2789 67.147 58.1087C65.8751 59.3274 64.3956 59.3274 62.8382 58.9643C62.5007 58.8866 62.2412 58.5754 61.9557 58.368C61.7999 58.2642 61.8778 58.1346 61.9557 58.0309C62.0595 57.9012 62.1893 57.7716 62.345 57.6938C63.9284 56.7344 65.33 55.5416 66.7577 54.3748C67.3287 53.908 67.9257 53.7265 68.6525 53.8043C71.1703 54.1155 73.7141 53.7525 76.2319 53.8302C76.777 53.8562 77.2961 53.8562 77.8412 53.8821C78.3863 53.8821 78.5939 54.1414 78.6718 54.6859C78.8795 56.8122 78.8275 58.9125 78.7497 61.0387C78.6458 63.2946 78.5161 65.5764 78.7756 67.8323C78.9054 68.8177 79.139 68.9732 80.1254 68.9732C81.8645 68.9732 83.5776 68.7399 85.161 68.1435C87.7826 67.1582 89.8072 65.4209 91.2089 63.0094C93.1816 59.6126 93.8565 55.9824 92.8182 52.1448C92.4289 50.7446 91.754 49.4222 90.8974 48.2553C90.0668 47.1144 89.2102 45.9994 88.3277 44.8585C88.0681 44.5214 88.0422 44.314 88.3796 43.951C89.8332 42.473 91.1051 40.8653 92.0136 38.9984C92.325 38.3761 92.5327 37.7278 92.5587 37.0277C92.5846 36.6388 92.4808 36.4573 92.0395 36.4573C90.7157 36.4573 89.3919 36.4573 88.0422 36.3795C87.4452 36.3536 87.2894 36.5869 87.2635 37.1055C87.2116 38.6354 87.1077 40.1393 87.1337 41.6692C87.1597 45.7142 87.2116 49.7593 87.2635 53.8043C87.2635 54.7896 87.5231 55.6453 88.3277 56.2936C89.6255 57.3567 90.0149 58.8347 89.4698 60.3905C88.9247 61.9203 87.5231 62.9835 85.9656 63.0872C84.1227 63.1909 82.0462 61.7388 82.0462 59.3792C82.0462 58.342 82.2279 57.4086 83.0325 56.6307C84.1487 55.5416 84.3563 54.0636 84.538 52.6375C85.0572 48.7739 84.9014 44.9104 84.6159 41.0209C84.5121 39.7244 84.4602 38.402 84.4342 37.1055C84.4342 36.6129 84.2525 36.4573 83.7593 36.4573C79.2169 36.4573 74.6745 36.4314 70.1061 36.4314C69.6648 36.4314 69.3274 36.3017 69.0418 35.9905C68.367 35.2904 67.7181 34.5903 66.8615 34.1236C66.7057 34.0458 66.6019 33.9421 66.6279 33.7606C66.6798 33.5013 66.8874 33.605 67.0432 33.605C68.1853 33.605 69.3274 33.5791 70.4435 33.5791C71.0405 33.5791 71.352 33.2938 71.5337 32.7234C72.0009 31.3232 71.7413 30.3119 70.5733 29.3525C69.3014 28.2894 68.8342 26.5521 69.3793 24.9445C69.8725 23.5702 71.2222 22.7145 72.9094 22.6367C73.9477 22.5848 74.8302 22.8182 75.6608 23.4665C77.348 24.7889 77.3221 27.9523 75.6089 29.1969C74.8042 29.7674 74.5706 30.5972 74.4928 31.4788C74.3111 33.4235 74.3111 33.4235 76.2578 33.4235C81.6309 33.4235 86.978 33.4494 92.351 33.4754C92.948 33.4754 93.0778 33.2938 93.0518 32.7493C92.948 28.7821 91.5463 25.3593 88.5354 22.7404C86.2771 20.7698 83.6295 19.4992 80.4888 19.7844C79.5024 19.8881 78.5161 20.1734 77.5297 20.329C76.3617 20.5105 76.128 20.2771 76.128 19.0843C76.128 15.0652 75.2974 11.3054 72.7017 8.09009C71.5337 6.63803 70.1061 5.49712 68.367 4.8748C66.8355 4.33028 65.2002 4.48585 63.5909 4.74515C63.3314 4.79701 63.3054 5.03038 63.2275 5.23782C62.968 6.27501 62.9161 7.36406 62.8641 8.42718C62.7084 13.5353 62.942 18.6176 62.9939 23.7258C63.0199 25.6964 62.9939 27.6671 62.9939 29.6377C62.9939 30.0526 63.0199 30.4934 63.3573 30.8305C63.4352 30.9083 63.539 31.038 63.4352 31.1676C63.3314 31.2713 63.2016 31.2195 63.0978 31.1417C62.2671 30.5453 61.4365 29.9489 60.6059 29.3266C60.2166 29.0414 60.2166 28.5746 60.2425 28.1597C60.3204 25.489 60.4761 22.8182 60.4502 20.1215C60.3983 15.9987 60.4502 11.8499 60.1646 7.72708C60.1387 7.46778 60.2425 7.07883 59.957 6.97511C59.6715 6.84546 59.3859 7.07883 59.1523 7.28627C57.6209 8.55683 56.7643 10.2163 56.1413 12.0574C55.2069 14.9096 55.0252 17.8397 54.9992 20.7957C54.9733 22.144 54.9992 23.4924 54.9733 24.8407C54.9473 25.5668 54.7916 25.6705 54.1686 25.2556C53.0006 24.5296 51.8066 23.8554 50.6126 23.2072C50.4568 23.1294 50.4049 23.0257 50.4049 22.8441C50.5866 19.8363 50.3011 16.8025 50.8981 13.8206C51.7027 9.67181 53.7533 6.17129 56.8681 3.34494C58.2179 2.12624 59.8012 1.19277 61.5923 0.596385C62.4488 0.337087 63.2795 0.181509 64.136 0C64.9147 0 65.6934 0 66.4462 0C66.576 0.0259298 66.7057 0.0777894 66.8096 0.0777894C68.7563 0.103719 70.4695 0.855683 72.1047 1.81509C75.2196 3.63017 77.4518 6.19722 78.6718 9.59402C79.2169 11.1239 79.736 12.6537 80.2811 14.1836C80.4369 14.6244 80.6186 15.0133 81.1636 15.0911C83.1623 15.4023 85.1091 15.9727 87.0039 16.6988C89.2362 17.5545 91.2349 18.7732 92.8701 20.5105C95.1543 22.8701 96.582 25.6964 97.1011 28.9636C97.2828 30.1304 97.4385 31.3232 97.5943 32.516C97.5943 33.3198 97.5943 34.1495 97.5943 34.9534C97.5424 35.1089 97.4904 35.2904 97.4645 35.446C97.153 37.5982 96.6598 39.6985 95.4139 41.5136C95.2062 41.8247 95.0765 42.1878 94.8948 42.5508C94.2978 43.7436 94.3237 44.8845 94.9467 46.1032C95.959 48.022 96.7637 50.0186 97.153 52.1707C97.3866 53.4672 97.4385 54.7637 97.5943 56.0602C97.776 56.2158 97.776 56.3454 97.776 56.4751Z" fill="#F58E0A"/>
<path d="M33.5331 0.0259399C34.6492 0.129659 35.6615 0.570466 36.6998 0.985342C39.1397 1.9966 41.0865 3.65611 42.8515 5.60084C45.8366 8.94579 46.771 12.9649 47.0306 17.2693C47.1085 18.3324 47.1344 19.4214 47.0306 20.4845C46.9787 21.0031 46.8229 21.1847 46.2519 21.0031C45.0838 20.6401 44.0715 19.8882 42.9035 19.5511C42.5141 19.4474 42.566 19.0325 42.566 18.7213C42.566 16.984 42.5141 15.2467 42.0209 13.5613C41.0865 10.2682 39.2436 7.62337 36.3624 5.73049C33.6109 3.94134 28.783 4.40807 26.4728 6.53432C23.7993 8.99765 22.5015 11.9277 22.0602 15.4542C21.5151 19.7326 21.6708 24.011 21.8266 28.2894C21.8525 29.2488 21.9045 30.2082 21.9045 31.1676C21.9045 31.6862 22.1381 31.8677 22.6312 31.9196C24.4742 32.0492 26.3171 31.9714 28.16 31.9455C28.9128 31.9455 28.9128 31.9455 28.809 32.7234C28.757 33.1383 28.6532 33.5791 28.6273 33.994C28.6013 34.5904 28.3158 34.8497 27.7188 34.8497C25.0712 34.8237 22.4495 34.7978 19.802 34.7719C19.2309 34.7719 19.0752 34.4348 19.0752 33.9162C19.1011 32.5938 19.1011 31.2713 19.1271 29.923C19.179 26.7336 18.8416 23.5443 18.9713 20.3549C18.9973 19.8104 18.6599 19.7844 18.2705 19.7844C11.5737 19.5251 6.64189 23.1035 4.92875 29.6378C3.86452 33.6828 4.51344 37.3389 6.90146 40.7357C7.60229 41.721 8.30312 42.7064 9.13374 43.5621C9.54905 43.9769 9.52309 44.3659 9.21161 44.8067C8.58865 45.6883 7.80994 46.4403 7.16103 47.2959C6.25254 48.4887 5.42192 49.7333 5.1364 51.2632C4.98066 52.093 5.00662 52.1707 5.83723 52.1707C7.00528 52.1967 8.1993 52.2485 9.36735 52.2226C10.172 52.1967 10.2758 52.067 10.2758 51.2373C10.3018 49.8371 10.3018 48.4628 10.3018 47.0626C10.3277 43.3546 10.3277 39.6467 10.3537 35.9387C10.3537 35.5238 10.3277 35.1349 10.3277 34.72C10.3018 33.7606 9.99031 33.0086 9.15969 32.3604C7.26485 30.8565 7.55038 27.5374 9.60096 26.2669C10.0422 26.0076 10.5354 25.9817 11.0286 25.9298C13.2609 25.7224 14.5068 26.215 15.3374 27.8486C16.168 29.4563 15.7008 31.4528 14.2472 32.6715C13.6762 33.1383 13.4166 33.6309 13.3647 34.357C13.2609 36.1721 13.183 37.9872 13.183 39.8282C13.183 43.7176 13.2349 47.5812 13.2349 51.4706C13.2349 52.1189 13.6243 52.1967 14.0915 52.2485C16.1161 52.43 18.1148 52.3523 20.1394 52.3523C22.5015 52.3523 24.8635 52.3523 27.2256 52.3523C28.9647 52.3523 29.0166 52.43 29.1723 54.1933C29.2762 55.3601 29.2762 55.3601 28.1081 55.3601C27.589 55.3601 27.0698 55.3601 26.5767 55.3601C26.2652 55.3601 26.1094 55.4898 26.1094 55.8009C26.0835 56.527 26.0835 57.253 26.2392 57.979C26.369 58.5495 26.6805 58.9903 27.1218 59.3533C28.3417 60.3386 28.8349 61.9463 28.3677 63.3724C27.8745 64.9023 26.4469 66.0691 24.8895 66.0691C21.6708 66.121 20.1134 63.8651 21.0479 60.7276C21.2036 60.2349 21.5411 59.8978 21.9304 59.5607C23.0725 58.5754 23.3061 57.253 23.2542 55.8268C23.2283 55.412 22.9427 55.4379 22.6572 55.4379C21.3074 55.4379 19.9577 55.4379 18.6079 55.412C14.1693 55.386 9.73074 55.3342 5.29214 55.2823C4.69513 55.2823 4.53939 55.4638 4.59131 56.0084C4.98066 61.8426 7.80994 66.4062 13.2609 68.4806C14.948 69.1288 16.7391 68.8695 18.4782 68.6362C19.2309 68.5324 19.9837 68.325 20.7624 68.2732C21.3075 68.2213 21.567 68.325 21.567 68.9992C21.567 72.007 21.9304 74.989 23.2023 77.7635C24.3444 80.2527 25.9537 82.3012 28.4715 83.5199C30.3144 84.4274 32.1833 84.3496 34.1041 83.8051C34.5454 83.6754 34.4416 83.3643 34.4416 83.105C34.4675 79.2155 34.4935 75.3001 34.5194 71.4107C34.5194 70.6068 34.5194 70.6068 35.3241 70.7105C35.7913 70.7624 36.2585 70.7883 36.7258 70.8143C37.193 70.8143 37.3487 71.0217 37.3747 71.4884C37.4785 73.1739 37.4266 74.8593 37.4006 76.5707C37.3747 78.1005 37.3747 79.6045 37.3747 81.1343C37.3747 81.7826 37.5045 81.8344 38.1015 81.6011C39.0619 81.2121 39.6589 80.4602 40.1521 79.6304C41.2163 77.8672 41.7354 75.8965 42.1248 73.8999C42.3843 72.5516 42.3065 71.1773 42.4882 69.803C42.566 69.2585 42.7737 68.9473 43.3188 68.714C44.357 68.2991 45.3434 67.7805 46.3298 67.2878C46.8748 67.0285 47.1085 67.0804 47.1085 67.599C46.9527 71.281 46.7191 74.963 45.4732 78.4636C44.2792 81.8604 42.0469 84.5052 39.1138 86.5018C36.2845 88.4206 33.0918 89.4059 29.6655 88.6021C26.5507 87.8761 23.8772 86.3721 21.8006 83.831C19.5683 81.0825 18.1148 77.9968 17.4139 74.5222C17.2842 73.9258 17.0246 73.485 16.2978 73.3813C15.1297 73.2517 13.9617 73.0442 12.8196 72.8109C11.6775 72.5775 10.5614 72.2145 9.49713 71.6959C4.85087 69.3881 2.22924 65.4987 0.82758 60.6239C-0.314517 56.6047 -0.184733 52.6893 1.4765 48.8258C1.99563 47.6071 2.48881 46.3625 3.00795 45.1438C3.26751 44.5215 3.2156 43.9251 2.93008 43.3546C2.28116 42.0063 1.73607 40.6061 1.19097 39.2059C-0.625998 34.4348 -0.314517 29.7155 1.78798 25.1C2.85221 22.7404 4.30578 20.6142 6.40828 19.0065C8.17334 17.6841 10.0682 16.6469 12.2745 16.258C13.6502 16.0246 14.974 15.5579 16.2978 15.2208C16.8169 15.0911 17.1025 14.7281 17.2582 14.2614C17.6216 13.3279 17.985 12.3945 18.2965 11.435C18.8156 9.74961 19.5683 8.16789 20.373 6.61211C21.8785 3.68204 24.4742 2.02253 27.4073 0.829763C28.3417 0.440817 29.3021 0.155589 30.2885 0.0259399C31.3787 0.0259399 32.4689 0.0259399 33.5331 0.0259399Z" fill="#F58E0A"/>
<path d="M46.4075 36.5351C47.0823 36.6906 47.9129 36.9759 48.6657 37.4167C50.6903 38.6354 52.7149 39.9059 54.7136 41.2024C55.6221 41.7988 56.3749 42.6286 57.1536 43.3546C57.5169 43.6917 57.491 44.0547 57.2055 44.4437C56.9199 44.8326 56.5306 45.1178 56.1672 45.4031C53.4677 47.633 50.6384 49.6555 47.3938 51.0298C47.2121 51.1076 47.0564 51.1854 46.8487 51.2632C45.8624 51.5744 45.1875 51.2891 44.876 50.3038C43.9935 47.5034 43.682 44.6252 43.8637 41.6951C43.9675 40.3467 44.1752 38.9725 44.6943 37.7019C45.0577 36.8721 45.5249 36.5091 46.4075 36.5351Z" fill="#F58E0A"/>
<path d="M28.2379 44.4177C28.2898 45.7142 28.2898 45.7402 26.966 45.7142C26.0834 45.6883 25.2788 45.8957 24.578 46.4662C24.0588 46.8811 23.5137 47.2441 22.9427 47.5812C20.944 48.7999 19.1011 48.4109 17.8552 46.4403C17.0505 45.1697 16.9207 43.8473 17.7254 42.4989C18.53 41.2025 19.5683 40.2949 21.2036 40.4505C22.3976 40.5542 23.358 41.1765 24.1626 41.9803C24.9413 42.7842 25.8498 43.0175 26.9141 42.9138C26.966 42.9138 27.0438 42.9138 27.0958 42.9138C28.1081 42.8879 28.2119 42.9657 28.2379 43.951C28.2379 44.1066 28.2379 44.2622 28.2379 44.4177Z" fill="#F58E0A"/>
<path d="M76.5952 48.1776C76.2058 48.1516 75.8165 48.1257 75.4531 48.0479C74.8561 47.9183 74.8042 47.6849 75.2195 47.2441C75.6608 46.8033 76.102 46.3625 76.5433 45.9217C77.2701 45.1956 77.322 44.3659 76.9326 43.4324C76.6211 42.6804 76.128 42.0841 75.531 41.5395C75.2974 41.3321 74.9859 41.0987 75.0897 40.8135C75.1676 40.5542 75.5829 40.5023 75.8684 40.4764C78.2564 40.2949 80.2032 41.3062 80.4887 44.0547C80.6964 46.3884 79.0611 48.0738 76.5952 48.1776Z" fill="#F58E0A"/>
<path d="M28.6791 21.2365C28.6531 18.9028 30.0807 17.347 32.287 17.1396C32.4687 17.1136 32.6764 17.1396 32.8581 17.2174C33.3513 17.3989 34.1559 17.2952 34.2598 17.8138C34.3376 18.2027 33.5589 18.4361 33.1696 18.7213C32.7802 18.9806 32.5726 19.3955 32.4168 19.8103C31.9237 21.1328 31.4564 22.4552 30.9633 23.7776C30.7037 24.4777 30.5479 24.5296 29.9769 24.0369C29.0425 23.259 28.7829 22.2218 28.6791 21.2365Z" fill="#F58E0A"/>
</svg>
