<svg width="147" height="89" viewBox="0 0 147 89" fill="none" xmlns="http://www.w3.org/2000/svg">
<path d="M0.233887 39.2836V0.0259399H4.43888V39.2836H0.233887Z" fill="#393738"/>
<path d="M11.7845 25.6964C11.7845 21.2365 12.8747 17.7101 15.081 15.0652C17.2614 12.4463 20.2205 11.1239 23.9063 11.1239C27.3586 11.1239 30.11 12.2648 32.1086 14.5466C34.1333 16.8285 35.1196 19.8363 35.1196 23.5702V26.215H16.0674C16.1453 29.4563 16.9759 31.9196 18.5333 33.605C20.0907 35.2905 22.297 36.1202 25.1263 36.1202C28.0854 36.1202 31.0444 35.4979 33.9516 34.2533V37.9872C32.472 38.6354 31.0704 39.0762 29.7466 39.3614C28.4228 39.6467 26.8394 39.7763 24.9705 39.7763C20.8953 39.7763 17.6767 38.5317 15.3147 36.0424C12.9526 33.5791 11.7845 30.1045 11.7845 25.6964ZM16.1712 22.8182H30.681C30.681 20.1734 30.084 18.1509 28.916 16.7507C27.7479 15.3505 26.0607 14.6504 23.8544 14.6504C21.6221 14.6504 19.8571 15.3764 18.5333 16.8285C17.1835 18.2546 16.4048 20.2512 16.1712 22.8182Z" fill="#393738"/>
<path d="M40.5706 18.4361C40.5706 16.1802 41.479 14.391 43.322 13.0945C45.1649 11.7981 47.6827 11.1498 50.8754 11.1498C53.8344 11.1498 56.7416 11.7462 59.5709 12.9649L58.0913 16.3617C55.314 15.2208 52.8221 14.6503 50.5639 14.6503C48.5652 14.6503 47.0597 14.9615 46.0474 15.5838C45.0351 16.2061 44.516 17.0618 44.516 18.1509C44.516 18.9028 44.6977 19.5251 45.087 20.0437C45.4764 20.5623 46.0734 21.055 46.93 21.5477C47.7865 22.0144 49.3958 22.7145 51.7839 23.5961C55.0544 24.7889 57.2867 26.0076 58.4028 27.2004C59.5449 28.4191 60.09 29.9489 60.09 31.7899C60.09 34.357 59.1296 36.3276 57.2348 37.7278C55.314 39.1281 52.6404 39.8022 49.1882 39.8022C45.5283 39.8022 42.6731 39.2318 40.6225 38.0909V34.2273C41.9463 34.9015 43.3739 35.4201 44.9053 35.809C46.4368 36.198 47.8904 36.3795 49.318 36.3795C51.5243 36.3795 53.2115 36.0424 54.3795 35.3423C55.5735 34.6422 56.1446 33.5791 56.1446 32.1529C56.1446 31.0639 55.6774 30.1563 54.7429 29.3785C53.8085 28.6006 51.9915 27.693 49.2661 26.6558C46.6963 25.6964 44.8534 24.8667 43.7632 24.1406C42.673 23.4146 41.8684 22.6108 41.3493 21.7032C40.8301 20.7698 40.5706 19.7066 40.5706 18.4361Z" fill="#393738"/>
<path d="M65.2555 18.4361C65.2555 16.1802 66.164 14.391 68.0069 13.0945C69.8498 11.7981 72.3676 11.1498 75.5603 11.1498C78.5194 11.1498 81.4265 11.7462 84.2558 12.9649L82.7763 16.3617C79.9989 15.2208 77.5071 14.6503 75.2488 14.6503C73.2502 14.6503 71.7447 14.9615 70.7324 15.5838C69.7201 16.2061 69.2009 17.0618 69.2009 18.1509C69.2009 18.9028 69.3826 19.5251 69.772 20.0437C70.1613 20.5623 70.7583 21.055 71.6149 21.5477C72.4715 22.0144 74.0808 22.7145 76.4688 23.5961C79.7394 24.7889 81.9716 26.0076 83.0878 27.2004C84.2299 28.4191 84.775 29.9489 84.775 31.7899C84.775 34.357 83.8146 36.3276 81.9197 37.7278C79.9989 39.1281 77.3254 39.8022 73.8731 39.8022C70.2132 39.8022 67.358 39.2318 65.3074 38.0909V34.2273C66.6312 34.9015 68.0588 35.4201 69.5903 35.809C71.1217 36.198 72.5753 36.3795 74.0029 36.3795C76.2092 36.3795 77.8964 36.0424 79.0645 35.3423C80.2585 34.6422 80.8295 33.5791 80.8295 32.1529C80.8295 31.0639 80.3623 30.1563 79.4279 29.3785C78.4934 28.6006 76.6765 27.693 73.951 26.6558C71.3813 25.6964 69.5384 24.8667 68.4482 24.1406C67.358 23.4146 66.5533 22.6108 66.0342 21.7032C65.5151 20.7698 65.2555 19.7066 65.2555 18.4361Z" fill="#393738"/>
<path d="M90.1478 25.4112C90.1478 20.8994 91.264 17.3989 93.5222 14.8837C95.7804 12.3685 98.8952 11.1239 102.893 11.1239C106.76 11.1239 109.823 12.4204 112.107 14.9874C114.391 17.5545 115.508 21.0291 115.508 25.4112C115.508 29.923 114.365 33.4494 112.107 35.9906C109.849 38.5317 106.708 39.8022 102.711 39.8022C100.245 39.8022 98.0646 39.2318 96.1438 38.0649C94.223 36.8981 92.7435 35.2386 91.7052 33.0605C90.667 30.8824 90.1478 28.3154 90.1478 25.4112ZM94.4566 25.4112C94.4566 28.9636 95.1575 31.6603 96.5851 33.5013C98.0127 35.3683 100.089 36.2758 102.841 36.2758C105.592 36.2758 107.669 35.3423 109.096 33.5013C110.524 31.6603 111.225 28.9636 111.225 25.3853C111.225 21.8588 110.524 19.1881 109.096 17.3471C107.669 15.506 105.566 14.5985 102.789 14.5985C100.037 14.5985 97.9608 15.506 96.5591 17.2952C95.1575 19.1362 94.4566 21.8329 94.4566 25.4112Z" fill="#393738"/>
<path d="M122.932 39.2837V11.6425H126.332L127.007 15.3764H127.214C128.071 14.028 129.265 12.9908 130.822 12.2389C132.38 11.4869 134.093 11.1239 135.988 11.1239C139.31 11.1239 141.828 11.9277 143.515 13.5354C145.202 15.143 146.033 17.7101 146.033 21.2365V39.2837H141.88V21.3662C141.88 19.1103 141.361 17.4248 140.348 16.3099C139.31 15.1949 137.701 14.6504 135.521 14.6504C132.613 14.6504 130.511 15.4282 129.161 17.01C127.811 18.5658 127.137 21.1587 127.137 24.763V39.3096H122.932V39.2837Z" fill="#393738"/>
<path d="M0.233887 53.9599V52.9486L2.23256 52.067L3.11509 49.111H4.33505V52.3263H8.35835V53.9599H4.33505V62.1537C4.33505 62.9835 4.54271 63.6317 4.93206 64.0725C5.32141 64.5133 5.8665 64.7467 6.56734 64.7467C6.93073 64.7467 7.29412 64.7208 7.65751 64.6689C7.99495 64.617 8.28048 64.5652 8.48813 64.4874V66.0691C8.25452 66.1728 7.91708 66.2765 7.47582 66.3284C7.03456 66.4062 6.61925 66.4321 6.28181 66.4321C3.58231 66.4321 2.25852 65.006 2.25852 62.1796V53.9599H0.233887Z" fill="#393738"/>
<path d="M19.6235 59.3792C19.6235 57.1493 20.1686 55.3601 21.2848 54.0377C22.375 52.7153 23.8545 52.067 25.7234 52.067C27.4625 52.067 28.8382 52.6375 29.8505 53.7784C30.8628 54.9193 31.356 56.4233 31.356 58.3161V59.6385H21.7779C21.8299 61.2721 22.2452 62.5168 23.0239 63.3465C23.8026 64.2022 24.9187 64.6171 26.3463 64.6171C27.8518 64.6171 29.3054 64.3059 30.785 63.6836V65.5505C30.0322 65.8617 29.3314 66.0951 28.6825 66.2506C28.0076 66.3803 27.2289 66.4581 26.2944 66.4581C24.2438 66.4581 22.6345 65.8358 21.4405 64.5911C20.2205 63.3465 19.6235 61.6092 19.6235 59.3792ZM21.8299 57.9531H29.1237C29.1237 56.6307 28.8382 55.6194 28.2412 54.8934C27.6442 54.1933 26.7876 53.8303 25.6974 53.8303C24.5813 53.8303 23.6987 54.1933 23.0239 54.9193C22.349 55.6454 21.9596 56.6566 21.8299 57.9531Z" fill="#393738"/>
<path d="M43.0885 62.3871C43.0885 59.5867 45.3467 58.1346 49.8373 57.979L52.1993 57.9012V57.0196C52.1993 55.9046 51.9657 55.1008 51.4985 54.5822C51.0313 54.0636 50.2785 53.8043 49.2402 53.8043C48.0722 53.8043 46.7744 54.1673 45.3208 54.8934L44.6719 53.2857C45.3467 52.9227 46.0995 52.6375 46.9301 52.43C47.7348 52.2226 48.5654 52.1189 49.396 52.1189C51.0572 52.1189 52.2772 52.4819 53.0818 53.2338C53.8865 53.9599 54.2759 55.1527 54.2759 56.7603V66.2506H52.7184L52.3031 64.3059H52.1993C51.4985 65.1616 50.8236 65.7579 50.1228 66.0432C49.4219 66.3543 48.5654 66.5099 47.553 66.5099C46.1773 66.5099 45.0872 66.1469 44.3085 65.4468C43.4778 64.7208 43.0885 63.7095 43.0885 62.3871ZM45.3208 62.413C45.3208 63.165 45.5544 63.7613 46.0216 64.1503C46.4888 64.5392 47.1377 64.7467 47.9424 64.7467C49.2402 64.7467 50.2785 64.3837 51.0313 63.6576C51.784 62.9316 52.1474 61.9203 52.1474 60.6238V59.3533L50.0449 59.4311C48.3837 59.4829 47.1637 59.7422 46.4369 60.209C45.6842 60.7276 45.3208 61.4536 45.3208 62.413Z" fill="#393738"/>
<path d="M66.9426 59.3533C66.9426 57.0196 67.4877 55.2305 68.6039 53.9599C69.72 52.6894 71.3033 52.067 73.3799 52.067C74.0547 52.067 74.7037 52.1448 75.3785 52.2745C76.0534 52.4301 76.5726 52.5856 76.9619 52.7931L76.313 54.5822C75.8458 54.4007 75.3526 54.2452 74.7815 54.1155C74.2364 53.9859 73.7433 53.934 73.328 53.934C70.4987 53.934 69.097 55.7231 69.097 59.3274C69.097 61.0388 69.4345 62.3352 70.1353 63.2687C70.8361 64.1763 71.8484 64.643 73.1982 64.643C74.3662 64.643 75.5343 64.3837 76.7542 63.891V65.758C75.8198 66.2506 74.6517 66.484 73.2501 66.484C71.2255 66.484 69.694 65.8617 68.5779 64.6171C67.4618 63.3724 66.9426 61.6351 66.9426 59.3533Z" fill="#393738"/>
<path d="M89.2396 66.2247V46.4921H91.3421V52.456C91.3421 53.182 91.3162 53.7784 91.2383 54.2451H91.3681C91.7834 53.571 92.3804 53.0524 93.1331 52.6634C93.8859 52.2745 94.7684 52.093 95.7548 52.093C97.4679 52.093 98.7398 52.5078 99.5704 53.3117C100.427 54.1155 100.842 55.412 100.842 57.1493V66.2247H98.7398V57.2271C98.7398 56.0862 98.4802 55.2564 97.9611 54.6859C97.4419 54.1155 96.6373 53.8562 95.5471 53.8562C94.0935 53.8562 93.0033 54.2451 92.3544 55.049C91.6796 55.8528 91.3421 57.1493 91.3421 58.9644V66.2247H89.2396Z" fill="#393738"/>
<path d="M113.561 59.3792C113.561 57.1493 114.106 55.3601 115.222 54.0377C116.313 52.7153 117.792 52.067 119.661 52.067C121.4 52.067 122.776 52.6375 123.788 53.7784C124.8 54.9193 125.294 56.4233 125.294 58.3161V59.6385H115.716C115.767 61.2721 116.183 62.5168 116.961 63.3465C117.74 64.2022 118.856 64.6171 120.284 64.6171C121.789 64.6171 123.243 64.3059 124.723 63.6836V65.5505C123.97 65.8617 123.269 66.0951 122.62 66.2506C121.945 66.3803 121.166 66.4581 120.232 66.4581C118.181 66.4581 116.572 65.8358 115.378 64.5911C114.158 63.3465 113.561 61.6092 113.561 59.3792ZM115.767 57.9531H123.061C123.061 56.6307 122.776 55.6194 122.179 54.8934C121.582 54.1933 120.725 53.8303 119.635 53.8303C118.519 53.8303 117.636 54.1933 116.961 54.9193C116.287 55.6454 115.897 56.6566 115.767 57.9531Z" fill="#393738"/>
<path d="M138.064 66.2247V52.3263H139.777L140.037 54.9193H140.141C140.66 54.0118 141.283 53.3117 142.01 52.819C142.736 52.3263 143.541 52.093 144.398 52.093C145.021 52.093 145.566 52.1448 146.059 52.2485L145.773 54.2192C145.202 54.0896 144.683 54.0377 144.242 54.0377C143.126 54.0377 142.165 54.5044 141.361 55.412C140.556 56.3195 140.167 57.4604 140.167 58.8088V66.2506H138.064V66.2247Z" fill="#393738"/>
<path d="M0.233887 85.5683V77.1411H1.19429V79.1896C1.19429 79.6563 1.16833 80.0712 1.14237 80.4342H1.19429C1.63555 79.8378 2.31043 79.5526 3.167 79.5526C3.99761 79.5526 4.62057 79.8119 5.08779 80.3564C5.55501 80.901 5.76267 81.6529 5.76267 82.6123C5.76267 83.5977 5.52905 84.3496 5.06183 84.8941C4.59461 85.4387 3.97165 85.698 3.14104 85.698C2.72573 85.698 2.36234 85.6202 2.0249 85.4905C1.68747 85.335 1.40194 85.1275 1.16833 84.8423H1.09046L0.882804 85.5943H0.233887V85.5683ZM1.19429 82.6123C1.19429 83.4421 1.35003 84.0385 1.63555 84.4015C1.92108 84.7645 2.41426 84.946 3.06317 84.946C3.66018 84.946 4.07548 84.7386 4.38696 84.3496C4.69844 83.9607 4.82822 83.3643 4.82822 82.6123C4.82822 81.8344 4.67248 81.264 4.38696 80.875C4.10143 80.4861 3.66018 80.3046 3.06317 80.3046C2.41426 80.3046 1.94703 80.4861 1.6615 80.8232C1.32407 81.1603 1.19429 81.7566 1.19429 82.6123Z" fill="#393738"/>
<path d="M7.73547 79.6304H8.74778L10.1235 83.0272C10.435 83.8051 10.6167 84.3496 10.6945 84.7126H10.7464C10.7984 84.5311 10.9022 84.22 11.0579 83.7792C11.2137 83.3384 11.7328 81.9641 12.6153 79.6563H13.6276L10.9281 86.424C10.6686 87.0982 10.3571 87.5649 9.9937 87.8501C9.6303 88.1354 9.18904 88.265 8.66991 88.265C8.38438 88.265 8.09886 88.2391 7.81334 88.1613V87.4353C8.02099 87.4871 8.25461 87.5131 8.51417 87.5131C9.16309 87.5131 9.63031 87.176 9.91583 86.4759L10.2792 85.6202L7.73547 79.6304Z" fill="#393738"/>
<path d="M19.8832 85.335V84.4534C20.2206 84.583 20.61 84.6867 20.9993 84.7904C21.4146 84.8682 21.804 84.9201 22.2193 84.9201C22.8682 84.9201 23.3614 84.7904 23.6988 84.5571C24.0363 84.3237 24.192 83.9866 24.192 83.5717C24.192 83.2865 24.1401 83.0791 24.0103 82.8976C23.8805 82.7161 23.6988 82.5605 23.4133 82.4049C23.1278 82.2493 22.7125 82.0937 22.1674 81.9122C21.3887 81.6529 20.8176 81.3418 20.5061 80.9788C20.1687 80.6157 20.013 80.149 20.013 79.5526C20.013 78.9303 20.2466 78.4636 20.7398 78.1006C21.2329 77.7375 21.8559 77.556 22.6606 77.556C23.4912 77.556 24.2699 77.7116 24.9707 77.9968L24.6592 78.8007C23.9584 78.5154 23.2835 78.3858 22.6346 78.3858C22.1155 78.3858 21.7002 78.4895 21.4146 78.6969C21.1291 78.9044 20.9734 79.1896 20.9734 79.5786C20.9734 79.8638 21.0253 80.0712 21.1291 80.2527C21.2329 80.4342 21.4146 80.5898 21.6742 80.7454C21.9338 80.901 22.3231 81.0566 22.8423 81.2381C23.7248 81.5233 24.3218 81.8604 24.6592 82.1975C24.9967 82.5345 25.1524 82.9754 25.1524 83.5199C25.1524 84.22 24.8929 84.7645 24.3478 85.1535C23.8027 85.5424 23.0759 85.7239 22.1674 85.7239C21.181 85.6721 20.4283 85.5683 19.8832 85.335Z" fill="#393738"/>
<path d="M27.748 81.6011C27.748 80.7972 27.9038 80.0712 28.2412 79.4489C28.5527 78.8266 29.0199 78.3598 29.6429 78.0228C30.2659 77.6857 30.9667 77.5301 31.7973 77.5301C32.6799 77.5301 33.4586 77.6857 34.1075 77.9968L33.6922 78.8006C33.0432 78.5154 32.4203 78.3858 31.7714 78.3858C30.8369 78.3858 30.1101 78.671 29.591 79.2674C29.0459 79.8378 28.7863 80.6417 28.7863 81.6529C28.7863 82.6901 29.0459 83.4939 29.565 84.0644C30.0842 84.6349 30.811 84.9201 31.7714 84.9201C32.3684 84.9201 33.0173 84.8164 33.77 84.6349V85.4387C33.199 85.6461 32.4722 85.7498 31.6156 85.7498C30.3697 85.7498 29.4352 85.3868 28.7604 84.6867C28.0855 83.9088 27.748 82.8976 27.748 81.6011Z" fill="#393738"/>
<path d="M36.9108 85.5683V77.6338H37.8971V81.0047H42.3357V77.6338H43.3221V85.5683H42.3357V81.8344H37.8971V85.5683H36.9108Z" fill="#393738"/>
<path d="M46.4368 81.6011C46.4368 80.3046 46.7742 79.3192 47.4491 78.5932C48.124 77.8931 49.0844 77.5301 50.3303 77.5301C51.5502 77.5301 52.4847 77.8931 53.1596 78.6191C53.8345 79.3452 54.1719 80.3305 54.1719 81.627C54.1719 82.8976 53.8345 83.8829 53.1596 84.6089C52.4847 85.335 51.5243 85.698 50.3303 85.698C49.0844 85.698 48.124 85.3349 47.475 84.6348C46.7742 83.9088 46.4368 82.8976 46.4368 81.6011ZM47.475 81.6011C47.475 82.6642 47.7086 83.4939 48.2018 84.0385C48.695 84.583 49.3958 84.8682 50.3043 84.8682C51.2388 84.8682 51.9396 84.583 52.4068 84.0385C52.874 83.4939 53.1077 82.6642 53.1077 81.6011C53.1077 80.5379 52.874 79.7341 52.4068 79.1637C51.9396 78.6191 51.2388 78.3339 50.3043 78.3339C49.3699 78.3339 48.6691 78.6191 48.1759 79.1637C47.7087 79.7341 47.475 80.5379 47.475 81.6011Z" fill="#393738"/>
<path d="M56.8975 81.6011C56.8975 80.3046 57.2349 79.3192 57.9098 78.5932C58.5847 77.8931 59.5451 77.5301 60.791 77.5301C62.0109 77.5301 62.9454 77.8931 63.6203 78.6191C64.2951 79.3452 64.6326 80.3305 64.6326 81.627C64.6326 82.8976 64.2951 83.8829 63.6203 84.6089C62.9454 85.335 61.985 85.698 60.791 85.698C59.5451 85.698 58.5847 85.3349 57.9357 84.6348C57.2349 83.9088 56.8975 82.8976 56.8975 81.6011ZM57.9357 81.6011C57.9357 82.6642 58.1694 83.4939 58.6625 84.0385C59.1557 84.583 59.8565 84.8682 60.765 84.8682C61.6995 84.8682 62.4003 84.583 62.8675 84.0385C63.3347 83.4939 63.5684 82.6642 63.5684 81.6011C63.5684 80.5379 63.3347 79.7341 62.8675 79.1637C62.4003 78.6191 61.6995 78.3339 60.765 78.3339C59.8306 78.3339 59.1297 78.6191 58.6366 79.1637C58.1693 79.7341 57.9357 80.5379 57.9357 81.6011Z" fill="#393738"/>
<path d="M67.7994 85.5683V77.6338H68.7858V84.7386H72.4976V85.5683H67.7994Z" fill="#393738"/>
<path d="M79.0905 81.6011C79.0905 80.3046 79.4279 79.3192 80.1028 78.5932C80.7777 77.8931 81.7381 77.5301 82.984 77.5301C84.204 77.5301 85.1384 77.8931 85.8133 78.6191C86.4882 79.3452 86.8256 80.3305 86.8256 81.627C86.8256 82.8976 86.4882 83.8829 85.8133 84.6089C85.1384 85.335 84.178 85.698 82.984 85.698C81.7381 85.698 80.7776 85.3349 80.1287 84.6348C79.4279 83.9088 79.0905 82.8976 79.0905 81.6011ZM80.1287 81.6011C80.1287 82.6642 80.3624 83.4939 80.8555 84.0385C81.3487 84.583 82.0495 84.8682 82.958 84.8682C83.8925 84.8682 84.5933 84.583 85.0605 84.0385C85.5277 83.4939 85.7614 82.6642 85.7614 81.6011C85.7614 80.5379 85.5277 79.7341 85.0605 79.1637C84.5933 78.6191 83.8925 78.3339 82.958 78.3339C82.0236 78.3339 81.3227 78.6191 80.8296 79.1637C80.3623 79.7341 80.1287 80.5379 80.1287 81.6011Z" fill="#393738"/>
<path d="M89.9923 85.5683V77.6338H91.1085L95.7028 84.2459H95.7547C95.7547 84.1422 95.7288 83.831 95.7028 83.3125C95.6768 82.8976 95.6768 82.5864 95.6768 82.353C95.6768 82.2753 95.6768 82.2234 95.6768 82.1715V77.6338H96.5853V85.5683H95.4692L90.8748 78.9303H90.8229C90.8748 79.7082 90.9268 80.4342 90.9268 81.0825V85.5943H89.9923V85.5683Z" fill="#393738"/>
<path d="M103.334 85.5683L106.656 77.6079H107.487L110.784 85.5683H109.771L108.733 83.0531H105.359L104.32 85.5683H103.334ZM105.722 82.2234H108.447L107.461 79.76C107.331 79.4489 107.202 79.0599 107.072 78.6191C106.994 78.9562 106.864 79.3452 106.708 79.76L105.722 82.2234Z" fill="#393738"/>
<path d="M113.224 85.5683V77.6338H114.21V85.5683H113.224Z" fill="#393738"/>
<path d="M117.792 85.5683V77.6338H120.102C121.14 77.6338 121.893 77.8153 122.386 78.1783C122.88 78.5414 123.113 79.1118 123.113 79.8638C123.113 80.901 122.542 81.627 121.426 81.99L123.71 85.5424H122.542L120.517 82.2493H118.778V85.5424H117.792V85.5683ZM118.778 81.4974H120.128C120.829 81.4974 121.322 81.3677 121.634 81.1084C121.945 80.8491 122.127 80.4602 122.127 79.9416C122.127 79.423 121.971 79.034 121.634 78.8007C121.296 78.5673 120.777 78.4636 120.05 78.4636H118.778V81.4974Z" fill="#393738"/>
</svg>
